<?xml version="1.0" encoding="UTF-8" standalone="no"?>
<!-- Created with Inkscape (http://www.inkscape.org/) -->

<svg
   width="101.95139mm"
   height="101.9514mm"
   viewBox="0 0 101.95139 101.9514"
   version="1.1"
   id="svg1"
   inkscape:version="1.3 (0e150ed6c4, 2023-07-21)"
   sodipodi:docname="Master.svg"
   xml:space="preserve"
   xmlns:inkscape="http://www.inkscape.org/namespaces/inkscape"
   xmlns:sodipodi="http://sodipodi.sourceforge.net/DTD/sodipodi-0.dtd"
   xmlns="http://www.w3.org/2000/svg"
   xmlns:svg="http://www.w3.org/2000/svg"><sodipodi:namedview
     id="namedview1"
     pagecolor="#ffffff"
     bordercolor="#000000"
     borderopacity="0.25"
     inkscape:showpageshadow="2"
     inkscape:pageopacity="0.0"
     inkscape:pagecheckerboard="0"
     inkscape:deskcolor="#d1d1d1"
     inkscape:document-units="mm"
     inkscape:zoom="0.78374771"
     inkscape:cx="240.51107"
     inkscape:cy="4435.1007"
     inkscape:window-width="2560"
     inkscape:window-height="1009"
     inkscape:window-x="-8"
     inkscape:window-y="-8"
     inkscape:window-maximized="1"
     inkscape:current-layer="layer1" /><defs
     id="defs1" /><g
     inkscape:label="Layer 1"
     inkscape:groupmode="layer"
     id="layer1"
     transform="translate(498.67273,-2786.3255)"><rect
       style="fill:#4d4d4d;fill-opacity:0.359639;stroke-width:1.3;stroke-linecap:square;stroke-linejoin:bevel;stroke-miterlimit:100;paint-order:stroke fill markers"
       id="rect1-7-8-9"
       width="101.95139"
       height="101.95139"
       x="-498.67273"
       y="2786.3254"
       ry="8.7771635"
       inkscape:export-filename="..\GitHub\placeholder-image2.png"
       inkscape:export-xdpi="96"
       inkscape:export-ydpi="96" /><path
       id="path1-2-7"
       style="fill:#f9f9f9;fill-opacity:1;stroke-width:0.175842"
       d="m -451.3148,2854.6582 c -0.1427,0 -0.31675,0.028 -0.50388,0.028 l -0.002,-0.028 c -0.56136,0.059 -1.2447,0.2074 -1.58217,0.3573 -0.85758,0.3816 -1.47646,0.8049 -2.06655,1.4133 -1.00249,1.0331 -1.70403,2.6229 -1.85222,4.1961 -0.0472,0.5019 10e-4,0.7032 0.22814,0.9325 0.1922,0.1964 0.38969,0.2682 0.63567,0.235 0.10012,-0.028 0.28253,-0.028 0.40458,0.028 0.74457,0.1245 1.03042,0.4912 1.68055,2.1426 0.42132,1.0705 0.66724,1.5834 1.10054,2.2986 2.17722,3.594 5.76057,5.6799 9.47445,5.5139 0.25303,-0.028 0.72633,-0.069 1.05228,-0.1271 2.08273,-0.37 3.8959,-1.3722 5.40258,-2.9863 l 0.21901,-0.2323 h 0.002 l 0.0193,-0.028 0.0221,-0.028 0.28674,-0.3562 0.15486,-0.2129 0.10586,-0.1493 0.008,-0.028 c 0.0304,-0.039 0.0553,-0.063 0.0965,-0.1217 0.11065,-0.1548 0.21404,-0.2862 0.22925,-0.2883 0.0138,0 0.1151,0.08 0.22177,0.1825 0.0525,0.05 0.091,0.083 0.12528,0.1111 h -0.002 l 0.24584,0.2213 h 0.002 l 0.66812,0.5964 h 0.006 c 0.0616,0.067 0.17421,0.1715 0.39345,0.3696 0.92273,0.8311 1.07482,0.9102 1.46617,0.7665 0.33496,-0.1245 0.52013,-0.6617 0.3619,-1.0514 -0.073,-0.1797 -0.38394,-0.5218 -0.53357,-0.6053 h 0.006 l -0.24971,-0.2323 -0.21819,-0.1798 c -0.008,-0.028 -0.0138,-0.028 -0.0193,-0.036 -0.0221,-0.028 -0.0403,-0.039 -0.0529,-0.044 h -0.0193 -9.4e-4 l -0.20601,-0.1713 h -0.006 c -0.10761,-0.1158 -0.29736,-0.2984 -0.60039,-0.5737 -0.4219,-0.3832 -0.77647,-0.717 -0.78786,-0.7421 -0.0105,-0.028 0.0249,-0.1383 0.0797,-0.249 0.2309,-0.4709 0.55615,-1.3361 0.72564,-2.0499 0.27625,-1.1638 0.17477,-0.5945 0.27459,-1.7714 l -0.0614,-0.1134 -0.0641,-0.069 -0.12803,-0.083 -0.22095,-0.075 -0.23007,-0.028 -0.20961,0.028 -0.22538,0.055 -0.16509,0.1217 -0.0697,0.073 -0.0594,0.1243 c -0.37185,2.2314 0.0105,0.053 -0.22261,1.2216 -0.12444,0.6205 -0.46793,1.4973 -0.58277,1.6895 -0.0138,0.028 -0.49585,-0.4006 -1.06807,-0.9465 -4.99251,-4.7609 -7.46465,-6.7565 -9.95236,-8.0368 -1.31682,-0.6775 -2.61089,-1.0493 -3.73687,-1.0728 z m 0.33686,1.66 c 0.26547,0.028 0.52718,0.063 0.91496,0.1548 0.50161,0.1218 1.54277,0.5301 2.13059,0.839 1.31268,0.6895 2.89535,1.8202 4.61103,3.2932 0.28373,0.2434 0.60023,0.51 0.70339,0.5913 0.37742,0.2968 5.19881,4.8239 5.24481,4.9247 0.0105,0.028 -0.0138,0.085 -0.0509,0.1356 -0.0138,0.028 -0.0249,0.039 -0.0334,0.055 l -0.32109,0.4314 -0.14103,0.2129 -0.1344,0.1521 -0.10679,0.1111 -0.091,0.1053 h -0.006 c -0.13799,0.1577 -0.32194,0.346 -0.43244,0.4491 l -0.18666,0.1659 -0.18555,0.1715 -0.0602,0.053 c -0.0533,0.044 -0.10118,0.091 -0.1355,0.13 l -0.15873,0.1299 -0.32196,0.2378 c -0.0616,0.039 -0.086,0.047 -0.18279,0.1111 -0.74103,0.4796 -1.50547,0.8294 -2.31153,1.058 -0.48114,0.1356 -1.75343,0.296 -2.26792,0.2838 -0.23146,0 -0.67081,-0.044 -0.97622,-0.089 -2.05554,-0.2944 -4.0763,-1.4543 -5.55754,-3.1903 -0.90315,-1.0583 -1.4706,-2.0226 -2.00438,-3.4038 -0.73143,-1.8923 -1.09371,-2.5137 -1.68889,-2.8998 -0.25082,-0.163 -0.79951,-0.3738 -0.92981,-0.3584 -0.13302,0.028 -0.14021,-0.085 -0.0326,-0.4211 0.45094,-1.4114 1.33431,-2.4464 2.62149,-3.0717 0.37385,-0.1825 0.46613,-0.2046 1.15158,-0.2987 h -9.3e-4 c 0.40456,-0.055 0.6744,-0.081 0.94004,-0.067 z m -1.87541,2.0032 c -0.0412,0 -0.0819,0 -0.1225,0.028 v 0 c -0.28306,0.055 -0.53691,0.307 -0.57809,0.7007 -0.0407,0.3891 0.25469,0.8614 0.57809,0.9242 0.2273,0.044 0.34746,0.028 0.53174,-0.1299 0.34221,-0.2711 0.39691,-0.7791 0.12887,-1.1858 -0.14214,-0.2157 -0.34077,-0.3158 -0.53822,-0.3184 z m -4.83465,15.4573 c -0.57381,0 -0.99201,0.377 -0.99201,0.8564 0,0.5697 0.44333,0.7215 0.84909,0.8529 0.31561,0.099 0.62267,0.1797 0.62267,0.4305 0,0.2102 -0.15956,0.4018 -0.4547,0.4018 -0.2746,0 -0.50442,-0.1437 -0.65607,-0.4065 l -0.50852,0.4018 c 0.2746,0.3075 0.63138,0.5373 1.16829,0.5373 0.65579,0 1.03282,-0.4594 1.03282,-0.9308 0,-0.5738 -0.45909,-0.7541 -0.86485,-0.8852 -0.32788,-0.1111 -0.61059,-0.1798 -0.61059,-0.4222 0,-0.1936 0.14381,-0.3396 0.41851,-0.3396 0.23367,0 0.41391,0.094 0.54098,0.2867 l 0.4584,-0.3489 c -0.24168,-0.249 -0.52449,-0.4342 -1.00402,-0.4342 z m 2.64371,0.5862 c -0.32784,0 -0.61049,0.1439 -0.77854,0.3684 v -0.3191 h -0.54933 v 3.5003 h 0.54933 v -1.3854 c 0.16813,0.2129 0.45531,0.3321 0.78322,0.3321 0.57789,0 1.17571,-0.4594 1.17571,-1.2461 0,-0.7953 -0.57785,-1.2502 -1.18039,-1.2502 z m 2.5417,0 c -0.60657,0 -1.1887,0.4549 -1.1887,1.2502 0,0.7867 0.60244,1.2461 1.18035,1.2461 0.31561,0 0.60231,-0.1355 0.77857,-0.3609 v 0.3116 h 0.55306 v -2.3977 h -0.55306 v 0.2868 c -0.17615,-0.2102 -0.45462,-0.3361 -0.77022,-0.3361 z m 6.27486,0 c -0.69269,0 -1.24254,0.5492 -1.24254,1.2502 0,0.6884 0.54985,1.2461 1.24254,1.2461 0.68857,0 1.2416,-0.5577 1.2416,-1.2461 0,-0.701 -0.55303,-1.2502 -1.2416,-1.2502 z m 6.62282,0 c -0.31148,0 -0.55745,0.1356 -0.71729,0.3443 v -0.295 h -0.54844 v 2.3977 h 0.55306 v -1.3156 c 0,-0.4223 0.24583,-0.6524 0.56144,-0.6524 0.36068,0 0.54098,0.2295 0.54098,0.6031 v 1.3649 h 0.56141 v -1.4224 c 0,-0.6516 -0.34864,-1.0246 -0.95116,-1.0246 z m 2.43498,0 c -0.69268,0 -1.2416,0.5492 -1.2416,1.2502 0,0.6884 0.54892,1.2461 1.2416,1.2461 0.68859,0 1.2416,-0.5577 1.2416,-1.2461 0,-0.701 -0.55301,-1.2502 -1.2416,-1.2502 z m 4.68063,0 c -0.60663,0 -1.18873,0.4549 -1.18873,1.2502 0,0.7867 0.60246,1.2461 1.18038,1.2461 0.31558,0 0.60232,-0.1355 0.77855,-0.3609 v 0.3116 h 0.55398 v -2.3977 h -0.55398 v 0.2868 c -0.17615,-0.2102 -0.45462,-0.3361 -0.7702,-0.3361 z m -18.35408,0.05 v 2.3978 h 0.55398 v -1.2798 c 0,-0.4139 0.16814,-0.5854 0.49182,-0.5854 0.15983,0 0.24942,0.041 0.33128,0.094 l 0.20961,-0.5247 c -0.11065,-0.061 -0.24612,-0.1029 -0.42221,-0.1029 -0.2992,0 -0.50459,0.119 -0.61526,0.3565 v -0.3565 z m 1.76683,0 v 2.3978 h 0.55306 v -1.2798 c 0,-0.4139 0.16813,-0.5854 0.49181,-0.5854 0.15983,0 0.25026,0.041 0.33219,0.094 l 0.20878,-0.5247 c -0.11065,-0.061 -0.24611,-0.1029 -0.42223,-0.1029 -0.29918,0 -0.50362,0.119 -0.61429,0.3565 v -0.3565 z m 4.06166,0 0.79899,2.3978 h 0.54562 l 0.62263,-1.6603 0.60692,1.6603 h 0.53264 l 0.84072,-2.3978 h -0.56233 l -0.54841,1.6553 -0.59021,-1.6553 h -0.54933 l -0.60317,1.6518 -0.528,-1.6518 z m 9.02161,0 0.91404,2.3978 h 0.55677 l 0.90197,-2.3978 h -0.56977 l -0.60687,1.6879 -0.61898,-1.6879 z m -19.13728,0.4546 c 0.40575,0 0.72195,0.3239 0.72195,0.7378 0,0.4178 -0.3162,0.746 -0.72195,0.746 -0.41396,0 -0.71268,-0.3323 -0.71268,-0.746 0,-0.4099 0.29872,-0.7378 0.71268,-0.7378 z m 2.70965,0 c 0.41395,0 0.7173,0.3279 0.7173,0.7378 0,0.4137 -0.30335,0.746 -0.7173,0.746 -0.40988,0 -0.72567,-0.3282 -0.72567,-0.746 0,-0.4139 0.31579,-0.7378 0.72567,-0.7378 z m 20.01325,0 c 0.41397,0 0.71732,0.3279 0.71732,0.7378 0,0.4137 -0.30335,0.746 -0.71732,0.746 -0.40985,0 -0.72474,-0.3282 -0.72474,-0.746 0,-0.4139 0.31489,-0.7378 0.72474,-0.7378 z m -13.82007,0.028 c 0.39348,0 0.69689,0.3236 0.69689,0.7295 0,0.3974 -0.30341,0.7256 -0.69689,0.7256 -0.39757,0 -0.69691,-0.3282 -0.69691,-0.7256 0,-0.4059 0.29934,-0.7295 0.69691,-0.7295 z m 9.0578,0 c 0.39347,0 0.69688,0.3236 0.69688,0.7295 0,0.3974 -0.30341,0.7256 -0.69688,0.7256 -0.39757,0 -0.69689,-0.3282 -0.69689,-0.7256 0,-0.4059 0.29932,-0.7295 0.69689,-0.7295 z" /><path
       id="rect6-9-5-0-7-4-2-8-6-7-7-2-0-4"
       style="fill:#333333;fill-opacity:0.506201;stroke-width:0"
       d="m -489.79507,2800.5834 c -1.79542,0 -3.24079,1.4456 -3.24079,3.2411 v 40.8787 c 0,1.7954 1.44537,3.2409 3.24079,3.2409 h 84.19607 c 1.79542,0 3.2408,-1.4455 3.2408,-3.2409 v -40.8787 c 0,-1.7955 -1.44538,-3.2411 -3.2408,-3.2411 z m 6.76676,3.3879 h 10.83047 c 1.11464,0 2.01194,0.6888 2.01194,1.5447 v 4.7637 c 0,0.8559 -0.8973,1.5449 -2.01194,1.5449 h -3.36282 v 3.3303 h 19.36404 c 1.06294,0 1.91864,0.8557 1.91864,1.9187 v 13.7262 c 0,1.063 -0.8557,1.9189 -1.91864,1.9189 h -4.66598 v 2.3641 h 6.13917 c 1.55376,0 2.80455,1.2508 2.80455,2.8046 v 3.6462 c 0,1.5537 -1.25079,2.8044 -2.80455,2.8044 h -31.41229 c -1.55376,0 -2.80456,-1.2507 -2.80456,-2.8044 v -3.6462 c 0,-1.5538 1.2508,-2.8046 2.80456,-2.8046 h 6.33185 v -2.3641 h -4.06658 c -1.06297,0 -1.91866,-0.8559 -1.91866,-1.9189 v -13.7262 c 0,-1.063 0.85569,-1.9187 1.91866,-1.9187 h 4.77985 v -3.3303 h -3.93771 c -1.11465,0 -2.01195,-0.689 -2.01195,-1.5449 v -4.7637 c 0,-0.8559 0.8973,-1.5447 2.01195,-1.5447 z m 3.93771,7.8533 h 3.52994 v -0.011 h -3.52994 z m -0.71327,20.8941 h 18.94127 v -0.021 h -18.94127 z m 14.70756,-28.5291 c 1.59702,0 2.53903,0.6144 3.34437,1.447 l -1.5288,1.16 c -0.42314,-0.6415 -1.02385,-0.9552 -1.80187,-0.9552 -0.91456,0 -1.39252,0.4913 -1.39252,1.133 0,0.8052 0.94209,1.0371 2.03409,1.4056 1.35132,0.4368 2.87994,1.0374 2.87994,2.9485 0,1.5697 -1.25584,3.0987 -3.4398,3.0987 -1.7881,0 -2.97548,-0.7644 -3.89,-1.7882 l 1.69249,-1.338 c 0.50504,0.8737 1.26954,1.3516 2.18407,1.3516 0.9828,0 1.51509,-0.6415 1.51509,-1.3375 0,-0.8326 -1.02364,-1.1058 -2.07468,-1.4334 -1.35132,-0.4368 -2.82564,-0.942 -2.82564,-2.8395 0,-1.5969 1.39228,-2.8526 3.30326,-2.8526 z m 4.38158,0 h 1.84273 v 3.0712 c 0.54599,-0.6961 1.36515,-1.1191 2.38888,-1.1191 2.00651,0 3.16671,1.242 3.16671,3.4124 v 4.7365 H -455.2 v -4.5317 c 0,-1.2559 -0.60069,-2.0202 -1.80186,-2.0202 -1.03741,0 -1.85643,0.7778 -1.85643,2.1701 v 4.3818 h -1.85644 z m 15.07182,0.8642 c 0.59899,0 1.19752,0.1 1.75285,0.3144 1.16076,0.4492 2.08774,1.3122 2.65904,2.4754 0.36982,0.7529 0.42992,1.0452 0.42992,2.0894 0,1.122 -0.007,1.1398 -0.48712,1.1398 -0.1912,0 -0.36058,-0.021 -0.3764,-0.047 -0.0158,-0.025 -0.005,-0.1289 0.0237,-0.2296 0.0761,-0.2653 0.1275,-0.9826 0.0861,-1.2026 -0.0349,-0.1859 -0.0456,-0.1924 -0.61759,-0.3823 -0.32007,-0.106 -0.58921,-0.1854 -0.59834,-0.1763 -0.0172,0.017 -0.28836,1.3029 -0.30206,1.4329 -0.0109,0.099 0.0662,0.1383 0.65685,0.339 0.27611,0.095 0.50212,0.1919 0.50212,0.218 0,0.027 -0.44021,0.047 -0.97843,0.047 -0.78348,0 -0.98463,-0.015 -1.00768,-0.075 -0.0338,-0.088 -1.45799,-0.5991 -1.56017,-0.5599 -0.0382,0.015 -0.10082,0.1331 -0.13943,0.263 -0.0973,0.328 -0.14683,0.3718 -0.41831,0.3718 -0.2822,0 -0.29229,-0.04 -0.12837,-0.5173 0.0601,-0.1745 0.0905,-0.3342 0.0677,-0.3545 -0.0228,-0.021 -0.35898,-0.1416 -0.74701,-0.2691 -0.38804,-0.1275 -0.73404,-0.2422 -0.76862,-0.2548 -0.0825,-0.031 -0.1216,0.1049 -0.23142,0.7948 l -0.0915,0.5738 -0.25516,0.017 c -0.18685,0.012 -0.26365,0 -0.28625,-0.065 -0.0357,-0.093 0.0609,-0.7995 0.16633,-1.2144 0.0437,-0.1722 0.0524,-0.2974 0.0217,-0.3162 -0.0446,-0.028 -1.29571,-0.457 -1.33137,-0.457 -0.007,0 -0.0294,0.084 -0.0488,0.1873 l -0.0353,0.1874 -0.36057,-0.032 c -0.19842,-0.017 -0.38058,-0.049 -0.40435,-0.07 -0.0568,-0.051 0.0996,-0.7302 0.26543,-1.1532 0.30703,-0.7834 1.01501,-1.6761 1.74045,-2.1941 0.80372,-0.5735 1.80363,-0.8758 2.80192,-0.8819 z m -36.7006,0.077 c -0.78572,0 -1.41835,0.4856 -1.41835,1.0889 v 3.358 c 0,0.6034 0.63263,1.0892 1.41835,1.0892 h 9.46088 c 0.78574,0 1.41835,-0.4858 1.41835,-1.0892 v -3.358 c 0,-0.6033 -0.63261,-1.0889 -1.41835,-1.0889 z m 36.34292,0.7338 c -0.25715,0 -0.9161,0.1676 -1.25889,0.3221 -0.39637,0.1787 -0.80831,0.434 -0.76704,0.4754 0.0223,0.022 0.81261,0.3035 0.94786,0.3372 0.0103,0 0.20558,-0.1872 0.43439,-0.4217 0.2288,-0.2343 0.50125,-0.4907 0.60572,-0.5693 l 0.19005,-0.1431 -0.15209,-3e-4 z m 1.31292,0.1061 c -0.10467,4e-4 -0.41994,0.1344 -0.70247,0.3039 -0.3065,0.1838 -1.02824,0.8098 -1.02824,0.8918 0,0.053 1.07816,0.431 1.1893,0.4166 0.0475,-0.011 0.17594,-0.3069 0.33844,-0.7931 0.14395,-0.4308 0.24932,-0.7955 0.23406,-0.8108 -0.005,-0.011 -0.0164,-0.011 -0.0314,-0.011 z m 10.22184,0.1714 c 2.0065,0 3.93138,1.515 3.93138,4.1631 0,2.6208 -1.99306,4.1495 -3.91767,4.1495 -1.09198,0 -2.04747,-0.3958 -2.60713,-1.1057 v 4.6138 h -1.82902 v -11.6571 h 1.82902 v 1.0649 c 0.55966,-0.7508 1.50144,-1.2285 2.59342,-1.2285 z m 9.11821,0 c 2.00654,0 3.93112,1.515 3.93112,4.1631 0,2.6208 -1.9928,4.1495 -3.91741,4.1495 -1.09199,0 -2.04773,-0.3958 -2.60739,-1.1057 v 4.6138 h -1.82875 v -11.6571 h 1.82875 v 1.0649 c 0.55966,-0.7508 1.50172,-1.2285 2.59368,-1.2285 z m 8.65404,0 c 2.37508,0 4.10851,1.7469 4.10851,4.1084 v 0.6962 h -6.49738 c 0.25935,1.1329 1.14679,1.8839 2.45714,1.8839 1.0374,0 1.82928,-0.5461 2.2115,-1.4061 l 1.51481,0.8736 c -0.69613,1.2967 -1.92452,2.1566 -3.72631,2.1566 -2.51155,0 -4.21789,-1.8291 -4.21789,-4.1359 0,-2.3342 1.81553,-4.1767 4.14962,-4.1767 z m -27.34251,0.055 c -0.0177,0 -0.0337,0.019 -0.0508,0.047 -0.11248,0.1748 -0.53207,1.574 -0.47261,1.574 0.007,2e-4 0.25793,0.084 0.55642,0.1875 0.29849,0.1029 0.56424,0.1896 0.59043,0.1896 0.0263,0 0.0312,-0.1432 0.0111,-0.3213 -0.0529,-0.4681 -0.17157,-0.8843 -0.36111,-1.2674 -0.15281,-0.3089 -0.22,-0.4184 -0.27307,-0.4089 z m 32.26999,0.1083 h 1.82928 v 1.1874 c 0.36855,-0.7918 1.05109,-1.1874 2.04754,-1.1874 0.58694,0 1.03741,0.1363 1.40596,0.341 l -0.69613,1.7477 c -0.27298,-0.1776 -0.57339,-0.3142 -1.10575,-0.3142 -1.07833,0 -1.63791,0.5734 -1.63791,1.9519 v 4.2588 h -1.84299 z m -31.22751,0.5206 c -0.028,0.011 -0.0103,0.1028 0.0572,0.383 0.0555,0.23 0.11651,0.5944 0.13548,0.8097 l 0.0346,0.3914 0.46708,0.1606 c 0.54183,0.1861 0.54825,0.1871 0.54825,0.1109 0,-0.117 -0.38232,-0.8809 -0.57725,-1.1535 -0.23698,-0.3314 -0.50043,-0.6238 -0.62206,-0.69 -0.0195,-0.012 -0.0338,-0.017 -0.0432,-0.012 z m -5.56377,0.2859 -0.18108,0.1758 c -0.19679,0.1907 -0.66476,0.951 -0.66476,1.08 0,0.053 0.21696,0.1514 0.66476,0.3 0.36566,0.1211 0.68148,0.2109 0.70166,0.1997 0.0202,-0.011 0.0664,-0.1117 0.10257,-0.2232 0.0362,-0.1116 0.17147,-0.4147 0.30076,-0.6736 l 0.23511,-0.4704 -0.57936,-0.1942 z m 1.78633,0.5921 -0.10336,0.1244 c -0.11797,0.142 -0.49522,0.9227 -0.54746,1.1328 -0.0341,0.1371 -0.0193,0.1456 0.68796,0.3901 0.39745,0.1374 0.76337,0.2534 0.81316,0.2534 0.0684,0 0.14438,-0.1591 0.31181,-0.6616 0.12187,-0.3657 0.22169,-0.6942 0.22169,-0.7305 0,-0.037 -0.30804,-0.1644 -0.69191,-0.2872 z m 30.07747,0.063 c -1.10564,0 -1.96559,0.6553 -2.29319,1.6379 h 4.53183 c -0.273,-1.0782 -1.09206,-1.6379 -2.23864,-1.6379 z m -18.05903,0.054 c -1.37863,0 -2.37491,1.092 -2.37491,2.457 0,1.3786 0.99628,2.4846 2.37491,2.4846 1.35132,0 2.40258,-1.0924 2.40258,-2.4846 0,-1.3787 -1.05126,-2.457 -2.40258,-2.457 z m 9.11848,0 c -1.37863,0 -2.37517,1.092 -2.37517,2.457 0,1.3786 0.99654,2.4846 2.37517,2.4846 1.35132,0 2.40232,-1.0924 2.40232,-2.4846 0,-1.3787 -1.051,-2.457 -2.40232,-2.457 z m -19.16214,0.581 c -0.0638,0.068 -0.4822,1.3876 -0.45047,1.4202 0.073,0.074 1.51972,0.5286 1.56201,0.4897 0.0259,-0.023 0.0925,-0.2332 0.14787,-0.4657 0.0554,-0.2326 0.11576,-0.5581 0.13444,-0.7234 l 0.034,-0.301 -0.69533,-0.2297 c -0.3825,-0.1265 -0.71211,-0.2121 -0.7325,-0.1901 z m -6.02979,1.5293 v 0 c 0.83725,0 0.86458,0 0.98266,0.1295 0.0738,0.079 0.44634,1.0105 0.94916,2.3744 l 0.82792,2.245 3.27084,0.028 3.2711,0.028 0.131,0.1523 c 0.17039,0.1982 0.16675,0.4208 -0.0103,0.6305 l -0.1405,0.1672 h -3.51965 -3.51966 l -0.13866,-0.1223 c -0.1051,-0.093 -0.33857,-0.6654 -0.96841,-2.3745 -0.79919,-2.1685 -0.83544,-2.2529 -0.97711,-2.2691 -0.0809,-0.011 -0.14708,-0.011 -0.14708,0.011 0,0.013 0.26869,0.724 0.59703,1.5796 0.32832,0.8558 0.59675,1.5794 0.59675,1.6079 0,0.082 -2.49221,0.067 -2.65641,-0.016 -0.073,-0.037 -0.17983,-0.1484 -0.23775,-0.2474 -0.0917,-0.157 -0.097,-0.2081 -0.0414,-0.3937 0.0974,-0.3253 0.24405,-0.3908 0.936,-0.4193 0.5203,-0.022 0.59068,-0.036 0.56064,-0.1126 -0.53158,-1.3614 -0.8946,-2.391 -0.8946,-2.5378 0,-0.1261 0.0435,-0.2304 0.13337,-0.3202 0.13025,-0.1281 0.15238,-0.1334 0.99451,-0.1334 z m 2.01248,1.7398 h 4.15806 c 4.62111,0 4.40897,-0.016 4.56662,0.3603 0.0721,0.1723 0.0702,0.2095 -0.018,0.3895 -0.0536,0.1094 -0.15839,0.2291 -0.23301,0.2662 -0.10433,0.052 -1.05202,0.068 -4.10719,0.068 h -3.97118 l -0.16079,-0.4203 c -0.0883,-0.2314 -0.17701,-0.476 -0.19742,-0.5431 z m 2.31217,1.5258 c 0.48782,0 1.11125,1e-4 1.90599,0.011 l 3.61375,0.015 0.13101,0.1522 c 0.16188,0.1882 0.17278,0.4959 0.0242,0.6891 l -0.10433,0.1354 -3.47723,0.015 -3.47747,0.015 -0.0456,-0.123 c -0.0251,-0.068 -0.0978,-0.2649 -0.16184,-0.4376 -0.064,-0.1728 -0.11651,-0.3506 -0.11651,-0.3953 0,-0.053 0.24462,-0.071 1.70804,-0.071 z m -36.57882,2.7334 c -0.96916,0 -1.74942,0.7803 -1.74942,1.7495 v 12.515 c 0,0.9692 0.78026,1.7494 1.74942,1.7494 h 26.09313 c 0.96918,0 1.7494,-0.7802 1.7494,-1.7494 v -12.515 c 0,-0.9692 -0.78022,-1.7495 -1.7494,-1.7495 z m 36.88195,0.088 c 0.2564,0 0.58955,-2e-4 1.02614,0 1.49396,0.015 1.5756,0.02 1.72147,0.1294 0.20506,0.1523 0.28299,0.4551 0.16422,0.6364 -0.17484,0.267 -0.45704,0.3083 -2.10289,0.3083 h -1.50244 l -0.13732,-0.137 c -0.17207,-0.1721 -0.21426,-0.3832 -0.12126,-0.6057 0.10456,-0.2503 0.18282,-0.3212 0.95208,-0.334 v -2e-4 z m 10.991,2.3461 c 0.85761,0 1.37564,0.5502 1.37564,1.3754 0,0.8254 -0.51803,1.3593 -1.37564,1.3593 -0.88998,0 -1.3754,-0.5339 -1.3754,-1.3593 0,-0.8252 0.53397,-1.3754 1.3754,-1.3754 z m -31.15108,0.882 h 3.45428 v 3.4558 h -3.45428 z m 3.99542,0 h 3.39762 v 3.4558 h -3.39762 z m 9.72842,0.4612 h 4.04525 c 2.44339,0 4.25585,1.877 4.25585,4.2071 0,2.3464 -1.81239,4.2235 -4.27194,4.2235 h -1.82848 v 3.3817 h -2.20068 z m -28.80516,0.1192 h 9.64276 c 0.47697,0 0.86113,0.3839 0.86113,0.8608 v 1.1195 c 0,0.4769 -0.38416,0.8609 -0.86113,0.8609 h -9.64276 c -0.47697,0 -0.86086,-0.384 -0.86086,-0.8609 v -1.1195 c 0,-0.4769 0.38389,-0.8608 0.86086,-0.8608 z m -0.0677,0.5886 v 1.5829 h 9.86257 v -1.5829 z m 31.07357,1.3311 v 4.3528 h 1.68273 c 1.29449,0 2.20068,-0.9709 2.20068,-2.1846 0,-1.2136 -0.90619,-2.1682 -2.20068,-2.1682 z m 22.45987,0.1133 c 1.48868,0 2.50814,0.5987 3.07445,1.6343 0.64726,-0.9871 1.74765,-1.6343 3.10689,-1.6343 2.57282,0 3.85098,1.4886 3.85098,3.9644 v 5.6957 h -2.23283 v -5.5178 c 0,-1.3754 -0.69595,-2.2492 -2.05517,-2.2492 -1.18125,0 -2.08735,0.8092 -2.08735,2.476 v 5.291 h -2.217 v -5.5824 c 0,-1.3594 -0.67966,-2.1846 -1.99034,-2.1846 -1.22979,0 -2.13583,0.8416 -2.13583,2.5243 v 5.2427 h -2.18459 v -9.466 h 2.16851 v 1.1003 c 0.59871,-0.7928 1.53723,-1.2944 2.70228,-1.2944 z m 15.89025,0 c 2.81556,0 4.87053,2.0713 4.87053,4.8705 v 0.8253 h -7.70249 c 0.30745,1.3431 1.35923,2.2331 2.91261,2.2331 1.2298,0 2.16856,-0.6474 2.62163,-1.6669 l 1.79607,1.0357 c -0.82525,1.5372 -2.28175,2.5567 -4.4177,2.5567 -2.97735,0 -4.99995,-2.1683 -4.99995,-4.9029 0,-2.7671 2.15231,-4.9515 4.9193,-4.9515 z m -31.19799,0.1941 h 2.16826 v 1.4077 c 0.4369,-0.9385 1.24615,-1.4077 2.42736,-1.4077 0.6958,0 1.22976,0.1618 1.66664,0.4046 l -0.82529,2.0712 c -0.32359,-0.2104 -0.67975,-0.3722 -1.3108,-0.3722 -1.27833,0 -1.94184,0.6798 -1.94184,2.314 v 5.0484 h -2.18433 z m 6.97421,0 h 2.20068 v 9.466 h -2.20068 z m -30.05086,1.1977 h 3.45428 v 3.4202 h -3.45428 z m 3.99544,0 h 3.3976 v 3.4202 h -3.3976 z m 50.2792,0.5338 c -1.31068,0 -2.33027,0.7767 -2.71862,1.9418 h 5.37213 c -0.32362,-1.2784 -1.29428,-1.9418 -2.65351,-1.9418 z m -36.00974,8.3095 h 39.94877 c 1.7171,0 3.09949,1.3824 3.09949,3.0995 v 8.4373 c 0,1.7171 -1.38239,3.0995 -3.09949,3.0995 h -39.94877 c -1.71711,0 -3.09951,-1.3824 -3.09951,-3.0995 v -8.4373 c 0,-1.7171 1.3824,-3.0995 3.09951,-3.0995 z m -37.56594,3.8584 c -1.27917,0 -2.30903,1.0298 -2.30903,2.3088 v 3.0016 c 0,1.2791 1.02986,2.309 2.30903,2.309 h 30.25118 c 1.27912,0 2.30874,-1.0299 2.30874,-2.309 v -3.0016 c 0,-1.279 -1.02962,-2.3088 -2.30874,-2.3088 z m 15.12558,2.592 a 1.2175879,1.2175879 0 0 1 1.2175,1.2179 1.2175879,1.2175879 0 0 1 -1.2175,1.2174 1.2175879,1.2175879 0 0 1 -1.21777,-1.2174 1.2175879,1.2175879 0 0 1 1.21777,-1.2179 z"
       inkscape:export-filename="..\Icons\Loyalt-Management.svg"
       inkscape:export-xdpi="96"
       inkscape:export-ydpi="96" /><path
       id="text3-0-9"
       style="font-weight:bold;font-size:7.06908px;font-family:'Samsung Sharp Sans';-inkscape-font-specification:'Samsung Sharp Sans Bold';text-align:center;text-anchor:middle;fill:#4d4d4d;fill-opacity:0.660654;stroke-width:0.814057;stroke-linecap:square;stroke-linejoin:bevel;stroke-miterlimit:100;paint-order:stroke fill markers"
       d="m -422.77813,2836.9164 c -1.2583,0 -1.73219,0.4665 -1.73219,1.6541 v 0.01 h -0.6997 v 0.8552 h 0.6997 v 3.2799 h 0.96841 v -3.2799 h 0.84853 v -0.8552 h -0.84853 c 0,-0.6009 0.0851,-0.7778 0.84853,-0.7778 v -0.8836 z m -17.7152,0.05 c -0.36759,0 -0.601,0.2404 -0.601,0.601 0,0.3605 0.2122,0.5937 0.601,0.5937 0.37466,0 0.601,-0.2332 0.601,-0.5937 0,-0.3606 -0.22634,-0.601 -0.601,-0.601 z m 6.75101,0.325 -0.9617,0.6573 v 0.6295 h -0.70641 v 0.8552 h 0.70641 v 1.5555 c 0,1.3148 0.38913,1.7244 1.66863,1.7244 h 0.13436 v -0.8976 c -0.73518,0 -0.84129,-0.113 -0.84129,-0.8341 v -1.5482 h 0.84129 v -0.8552 h -0.84129 z m 5.54902,0.1912 c -1.47037,0 -2.63654,1.1872 -2.63654,2.6505 0,1.4704 1.16617,2.651 2.63654,2.651 1.47036,0 2.64376,-1.1806 2.64376,-2.651 0,-1.4633 -1.1734,-2.6505 -2.64376,-2.6505 z m 9.34568,0 c -0.98967,0 -1.71101,0.6504 -1.71101,1.4774 0,0.9826 0.76364,1.244 1.46348,1.4702 0.54432,0.1697 1.07435,0.3109 1.07435,0.7421 0,0.3605 -0.27547,0.693 -0.78445,0.693 -0.47362,0 -0.86964,-0.2473 -1.13119,-0.6997 l -0.87644,0.6925 c 0.47363,0.5301 1.0883,0.926 2.01435,0.926 1.13105,0 1.7818,-0.7916 1.7818,-1.6046 0,-0.9896 -0.79206,-1.3008 -1.49189,-1.527 -0.56553,-0.1909 -1.05317,-0.311 -1.05317,-0.7281 0,-0.3323 0.24726,-0.5865 0.72089,-0.5865 0.40293,0 0.71413,0.1623 0.93327,0.4945 l 0.79169,-0.6005 c -0.41708,-0.4312 -0.9046,-0.7493 -1.73168,-0.7493 z m 7.11843,0 v 5.2307 h 0.96118 v -5.2307 z m -37.75584,0.07 v 5.1604 h 0.96118 v -1.4774 h 0.79892 c 1.0745,0 1.86604,-0.8199 1.86604,-1.8449 0,-1.0179 -0.79137,-1.8381 -1.8588,-1.8381 z m 21.29173,0.8769 c 0.94018,0 1.68982,0.7631 1.68982,1.7033 0,0.9402 -0.74964,1.7038 -1.68982,1.7038 -0.94019,0 -1.68207,-0.7636 -1.68207,-1.7038 0,-0.9402 0.74188,-1.7033 1.68207,-1.7033 z m -20.33055,0.014 h 0.73536 c 0.56553,0 0.96118,0.417 0.96118,0.9472 0,0.5302 -0.39565,0.9545 -0.96118,0.9545 h -0.73536 z m 4.99091,0.05 c -1.19467,0 -2.14198,0.9471 -2.14198,2.1559 0,1.1877 0.94731,2.1493 2.14198,2.1493 1.18761,0 2.14199,-0.9616 2.14199,-2.1493 0,-1.2088 -0.95438,-2.1559 -2.14199,-2.1559 z m 6.25595,0 c -0.53725,0 -0.96144,0.2332 -1.23713,0.5938 v -0.509 h -0.94723 v 4.1351 h 0.95446 v -2.2691 c 0,-0.7281 0.4241,-1.124 0.96842,-1.124 0.62208,0 0.93328,0.396 0.93328,1.0392 v 2.3539 h 0.96841 v -2.4526 c 0,-1.1239 -0.60105,-1.7673 -1.64021,-1.7673 z m 22.72006,0 c -1.04622,0 -2.05,0.7845 -2.05,2.1559 0,1.3573 1.03931,2.1493 2.03605,2.1493 0.54432,0 1.0391,-0.2334 1.34307,-0.6222 v 0.5369 h 0.95446 v -4.1351 h -0.95446 v 0.4945 c -0.30397,-0.3605 -0.7848,-0.5793 -1.32912,-0.5793 z m 6.35517,0 c -1.20881,0 -2.14922,0.9544 -2.14922,2.1632 0,1.1947 0.88365,2.142 2.18436,2.142 0.93312,0 1.56959,-0.4457 1.93012,-1.1173 l -0.78497,-0.4521 c -0.19793,0.4453 -0.6079,0.7281 -1.14515,0.7281 -0.67863,0 -1.13796,-0.3889 -1.27227,-0.9757 h 3.36517 v -0.3607 c 0,-1.2229 -0.89802,-2.1275 -2.12804,-2.1275 z m -32.77216,0.085 v 4.1351 h 0.96118 v -4.1351 z m 32.77216,0.7565 c 0.5938,0 1.01772,0.2896 1.1591,0.848 h -2.34662 c 0.16965,-0.509 0.61493,-0.848 1.18752,-0.848 z m -6.21357,0.028 c 0.71397,0 1.23713,0.5659 1.23713,1.2728 0,0.714 -0.52316,1.2862 -1.23713,1.2862 -0.70691,0 -1.25161,-0.5652 -1.25161,-1.2862 0,-0.714 0.5447,-1.2728 1.25161,-1.2728 z m -29.11761,0.028 c 0.67863,0 1.20148,0.5585 1.20148,1.2583 0,0.6857 -0.52285,1.2511 -1.20148,1.2511 -0.6857,0 -1.20199,-0.5654 -1.20199,-1.2511 0,-0.6998 0.51629,-1.2583 1.20199,-1.2583 z" /></g></svg>
